<svg role="img" viewBox="0 0 24 24" xmlns="http://www.w3.org/2000/svg"><title>Google BigQuery</title><path d="M10.799 0a10.8 10.8 0 1 0 6.338 19.543.504.504 0 0 0 .047.064l4.248 4.248a.504.504 0 0 0 .707 0l1.716-1.716a.504.504 0 0 0 0-.707l-4.248-4.248a.504.504 0 0 0-.082-.061 10.8 10.8 0 0 0 2.075-6.324 10.8 10.8 0 0 0-10.801-10.8zm.008 2.795a8.016 8.016 0 0 1 8.02 8.004 8.016 8.016 0 0 1-8.028 8.027 8.016 8.016 0 0 1 .008-16.031zM9.467 7.69v9.036a9.144 9.144 0 0 0 1.332.072 9.6 9.6 0 0 0 1.201 0V7.69H9.467zm-3.791 2.905v3.156a5.892 5.892 0 0 0 2.053 2.088v-5.244H5.676zm8.29 1.236v3.947a6 6 0 0 0 2.042-2.183v-1.764h-2.041z"/></svg>